<svg width="691" height="691" viewBox="0 0 691 691" fill="none" xmlns="http://www.w3.org/2000/svg">
<g filter="url(#filter0_f_2003_1398)">
<path d="M316.095 117.984L336.867 101.268C325.449 84.3087 198.233 83.3744 153.795 139.47C123.222 178.063 89.475 292.297 160.958 220.288C227.23 153.53 275.432 115.719 316.095 117.984Z" fill="white" fill-opacity="0.7"/>
</g>
<g filter="url(#filter1_f_2003_1398)">
<path d="M100.727 413.516L88.5511 397.614C75.6078 405.88 72.5973 501.399 113.917 535.789C142.344 559.449 227.519 586.866 174.739 531.876C125.808 480.897 98.288 444.012 100.727 413.516Z" fill="white" fill-opacity="0.7"/>
</g>
<path d="M485.559 479.415L452.718 474.411C441.836 472.753 431.669 480.23 430.011 491.113L427.008 510.817L479.554 518.825L485.559 479.415Z" fill="#8FC0FA"/>
<path d="M425.006 523.954L421.003 550.227C419.344 561.109 426.822 571.275 437.705 572.934L470.545 577.938L477.552 531.961L425.006 523.954Z" fill="#8FC0FA"/>
<path d="M483.682 579.94L516.523 584.945C527.405 586.603 537.572 579.125 539.23 568.243L543.234 541.97L490.688 533.963L483.682 579.94Z" fill="#8FC0FA"/>
<path d="M545.236 528.834L492.69 520.826L498.695 481.417L531.536 486.422C542.419 488.08 549.897 498.247 548.238 509.129L545.236 528.834Z" fill="#8FC0FA"/>
<path fill-rule="evenodd" clip-rule="evenodd" d="M475.117 477.826C462.784 475.946 454.309 464.425 456.188 452.091C457.626 442.659 466.436 436.179 475.868 437.616L476.306 437.683C485.109 439.024 492.37 444.22 496.634 451.294C502.812 445.811 511.29 443.014 520.094 444.355L520.532 444.422C529.963 445.859 536.444 454.67 535.007 464.102C533.127 476.435 521.605 484.91 509.272 483.031L475.117 477.826ZM477.119 464.69L487.473 466.267C487.542 458.678 482.025 451.996 474.304 450.819L473.866 450.752C471.69 450.421 469.656 451.916 469.325 454.093C468.551 459.171 472.04 463.916 477.119 464.69ZM511.273 469.894L500.92 468.316C503.114 461.051 510.371 456.315 518.092 457.492L518.53 457.559C520.706 457.89 522.202 459.924 521.87 462.1C521.096 467.179 516.352 470.668 511.273 469.894Z" fill="#8FC0FA"/>
<path d="M308.655 381.105L309.544 381.928L310.184 380.898C317.117 369.735 328.743 361.66 342.712 359.774L343.422 359.678C358.166 357.688 371.756 368.119 373.764 382.996C376.413 402.615 362.778 420.637 343.328 423.262L287.93 430.74C268.48 433.366 250.554 419.604 247.906 399.985C245.898 385.109 256.236 371.447 270.98 369.457L271.69 369.361C285.659 367.476 299.01 372.179 308.655 381.105ZM302.093 408.984L303.234 408.83L302.921 407.721C299.428 395.347 287.35 387.092 274.321 388.851L273.61 388.947C269.526 389.498 266.678 393.279 267.231 397.376C268.424 406.217 276.507 412.437 285.299 411.251L302.093 408.984ZM322.769 405.042L322.761 406.194L323.903 406.04L340.697 403.773C349.488 402.586 355.633 394.445 354.44 385.604C353.887 381.506 350.138 378.617 346.053 379.168L345.343 379.264C332.314 381.023 322.857 392.184 322.769 405.042Z" fill="#593A9F" stroke="#D575BA" stroke-width="2"/>
<path d="M306.263 427.57L171.232 445.797C156.042 447.848 144.922 458.353 146.395 469.263L149.061 489.016L311.596 467.076L306.263 427.57Z" fill="#D7C6FA"/>
<path d="M150.839 502.184L161.205 578.976C162.677 589.885 176.185 597.067 191.375 595.016L326.405 576.789L313.373 480.244L150.839 502.184Z" fill="#D7C6FA"/>
<path d="M344.741 574.314L390.581 568.126C405.771 566.076 416.891 555.57 415.418 544.661L405.052 467.869L331.709 477.769L344.741 574.314Z" fill="#D7C6FA"/>
<path d="M403.275 454.7L329.931 464.601L324.599 425.095L370.438 418.907C385.628 416.857 399.136 424.038 400.608 434.947L403.275 454.7Z" fill="#D7C6FA"/>
<mask id="mask0_2003_1398" style="mask-type:alpha" maskUnits="userSpaceOnUse" x="17" y="4" width="657" height="674">
<ellipse cx="345.5" cy="341" rx="328.5" ry="337" fill="white"/>
</mask>
<g mask="url(#mask0_2003_1398)">
<path fill-rule="evenodd" clip-rule="evenodd" d="M93.0488 548.132C93.0488 570.344 107.902 589.088 128.218 594.972C126.295 601.261 125.261 607.938 125.261 614.856C125.261 652.373 155.674 682.786 193.191 682.786C209.839 682.786 225.089 676.797 236.902 666.856C245.125 679.774 259.571 688.344 276.018 688.344C288.735 688.344 300.255 683.221 308.627 674.927C329.285 687.719 358.052 695.653 389.867 695.653C439.414 695.653 481.568 676.409 497.215 649.544C499.351 649.771 501.52 649.887 503.716 649.887C537.411 649.887 564.726 622.572 564.726 588.877C564.726 574.203 559.545 560.739 550.913 550.214C556.912 544.99 560.704 537.296 560.704 528.717C560.704 512.98 547.947 500.223 532.21 500.223C516.757 500.223 504.177 512.523 503.728 527.867C503.724 527.867 503.72 527.867 503.716 527.867C491.514 527.867 480.15 531.449 470.616 537.618C465.422 532.136 458.074 528.717 449.926 528.717C434.189 528.717 421.432 541.474 421.432 557.211C421.432 558.128 421.476 559.034 421.56 559.929C411.499 558.159 400.865 557.211 389.867 557.211C383.693 557.211 377.633 557.51 371.726 558.085C370.555 543.423 358.286 531.89 343.323 531.89C335.39 531.89 328.214 535.132 323.048 540.363C314.58 529.311 301.246 522.185 286.247 522.185C282.608 522.185 279.067 522.605 275.67 523.398C273.525 509.784 261.741 499.373 247.524 499.373C231.788 499.373 219.03 512.13 219.03 527.867C219.03 541.604 228.752 553.071 241.69 555.763C240.786 558.926 240.21 562.228 240.001 565.628C227.816 554.039 211.334 546.926 193.191 546.926C192.308 546.926 191.428 546.943 190.553 546.976C189.939 520.581 168.35 499.373 141.808 499.373C114.879 499.373 93.0488 521.203 93.0488 548.132Z" fill="url(#paint0_radial_2003_1398)"/>
</g>
<g filter="url(#filter2_b_2003_1398)">
<circle cx="345.5" cy="345.304" r="344.742" fill="white" fill-opacity="0.12"/>
</g>
<circle cx="345.5" cy="345.304" r="338.242" stroke="white" stroke-opacity="0.11" stroke-width="13"/>
<defs>
<filter id="filter0_f_2003_1398" x="83.3005" y="55.9126" width="288.749" height="222.874" filterUnits="userSpaceOnUse" color-interpolation-filters="sRGB">
<feFlood flood-opacity="0" result="BackgroundImageFix"/>
<feBlend mode="normal" in="SourceGraphic" in2="BackgroundImageFix" result="shape"/>
<feGaussianBlur stdDeviation="17.5915" result="effect1_foregroundBlur_2003_1398"/>
</filter>
<filter id="filter1_f_2003_1398" x="44.797" y="362.43" width="182.02" height="236.706" filterUnits="userSpaceOnUse" color-interpolation-filters="sRGB">
<feFlood flood-opacity="0" result="BackgroundImageFix"/>
<feBlend mode="normal" in="SourceGraphic" in2="BackgroundImageFix" result="shape"/>
<feGaussianBlur stdDeviation="17.5915" result="effect1_foregroundBlur_2003_1398"/>
</filter>
<filter id="filter2_b_2003_1398" x="-3.24194" y="-3.4375" width="697.484" height="697.484" filterUnits="userSpaceOnUse" color-interpolation-filters="sRGB">
<feFlood flood-opacity="0" result="BackgroundImageFix"/>
<feGaussianBlur in="BackgroundImageFix" stdDeviation="2"/>
<feComposite in2="SourceAlpha" operator="in" result="effect1_backgroundBlur_2003_1398"/>
<feBlend mode="normal" in="SourceGraphic" in2="effect1_backgroundBlur_2003_1398" result="shape"/>
</filter>
<radialGradient id="paint0_radial_2003_1398" cx="0" cy="0" r="1" gradientUnits="userSpaceOnUse" gradientTransform="translate(366 663) rotate(-143.882) scale(396.134 422.838)">
<stop stop-color="white"/>
<stop offset="0.558381" stop-color="#E2EFFD"/>
<stop offset="1" stop-color="#8FC0FA"/>
</radialGradient>
</defs>
</svg>
