<?xml version="1.0" encoding="utf-8"?>
<!-- Generator: Adobe Illustrator 18.1.1, SVG Export Plug-In . SVG Version: 6.00 Build 0)  -->
<svg version="1.1" id="Capa_1" xmlns="http://www.w3.org/2000/svg" xmlns:xlink="http://www.w3.org/1999/xlink" x="0px" y="0px"
	 viewBox="-289 382 31 31" enable-background="new -289 382 31 31" xml:space="preserve">
<g>
	<path fill="#7D7D7D" d="M-258,385.2c-0.2-1.8-1.7-3.2-3.6-3.2c-7.9,0-15.9,0-23.8,0c-0.2,0-0.4,0-0.6,0.1c-1.8,0.3-3,1.8-3,3.6
		c0,4,0,7.9,0,11.9c0,3.9,0,7.9,0,11.8c0,0.2,0,0.4,0,0.6c0.2,1.7,1.8,3,3.5,3c8,0,16,0,23.9,0c0.1,0,0.3,0,0.4,0
		c1.8-0.2,3.1-1.7,3.1-3.5c0-8,0-16,0-23.9C-258,385.4-258,385.3-258,385.2z M-273.5,391.5c3.3,0,6,2.7,6,6c0,3.3-2.7,6-6,6
		c-3.3,0-6-2.7-6-6C-279.5,394.2-276.8,391.5-273.5,391.5z M-261.6,395.3c0,4.3,0,8.6,0,12.8c0,0.8-0.5,1.3-1.3,1.3
		c-6.6,0-13.2,0-19.9,0c-0.5,0-1,0-1.4,0c-0.7,0-1.3-0.5-1.3-1.3c0-4.3,0-8.6,0-12.9c0,0,0-0.1,0-0.1c0.9,0,1.8,0,2.7,0
		c-0.6,2.4-0.3,4.8,0.9,7c0.9,1.6,2.1,2.9,3.7,3.7c3.1,1.8,7,1.6,10-0.4c1.7-1.1,2.9-2.6,3.6-4.5c0.7-1.9,0.8-3.8,0.3-5.7
		c0.9,0,1.8,0,2.7,0C-261.6,395.2-261.6,395.2-261.6,395.3z M-261.6,390.3c0,0.7-0.5,1.2-1.2,1.2c0,0,0,0,0,0c-0.6,0-1.2,0-1.7,0
		c-0.6,0-1.2,0-1.8,0c-0.7,0-1.2-0.5-1.2-1.2c0-1.2,0-2.4,0-3.6c0-0.7,0.5-1.2,1.2-1.2c1.2,0,2.3,0,3.5,0c0.7,0,1.2,0.5,1.2,1.2
		C-261.6,388-261.6,389.1-261.6,390.3z"/>
</g>
</svg>
